<svg xmlns="http://www.w3.org/2000/svg" viewBox="0 0 600 400"><defs><style>.matrix-box{fill:none;stroke:#000;stroke-width:2}.text-label{font-family:&quot;Nano Banana&quot;,sans-serif;font-size:24px;fill:#000;text-anchor:middle;dominant-baseline:middle}.dimension-text{font-family:&quot;Nano Banana&quot;,monospace;font-size:18px;fill:#444}.line{stroke:#000;stroke-width:2}@media (prefers-color-scheme:dark){.matrix-box{stroke:#fff}.text-label{fill:#fff}.dimension-text{fill:#ccc}.line{stroke:#fff}}</style></defs><text x="50" y="200" class="text-label" style="font-size:32px">C =</text><path d="M0 0h300v75H0z" class="matrix-box" transform="translate(100 50)"/><text x="150" y="37.5" class="text-label" transform="translate(100 50)">NODE 1</text><text x="310" y="37.5" class="dimension-text" transform="translate(100 50)">4</text><path d="M0 75h300v75H0z" class="matrix-box" transform="translate(100 50)"/><text x="150" y="112.5" class="text-label" transform="translate(100 50)">NODE 2</text><text x="310" y="112.5" class="dimension-text" transform="translate(100 50)">4</text><path d="M0 150h300v75H0z" class="matrix-box" transform="translate(100 50)"/><text x="150" y="187.5" class="text-label" transform="translate(100 50)">NODE 3</text><text x="310" y="187.5" class="dimension-text" transform="translate(100 50)">4</text><path d="M0 225h300v75H0z" class="matrix-box" transform="translate(100 50)"/><text x="150" y="262.5" class="text-label" transform="translate(100 50)">NODE 4</text><text x="310" y="262.5" class="dimension-text" transform="translate(100 50)">4</text><text x="150" y="-15" class="dimension-text" text-anchor="middle" transform="translate(100 50)">16</text><path d="M0-5h300" class="line" style="stroke-width:1;stroke-dasharray:4" transform="translate(100 50)"/><text x="450" y="200" class="dimension-text" style="font-size:24px">16</text><path fill="none" d="M430 50h10v300h-10" class="line" style="stroke-width:1"/></svg>