<svg xmlns="http://www.w3.org/2000/svg" width="600" height="300" viewBox="0 0 600 300"><style>.text-label{font-family:-apple-system,BlinkMacSystemFont,"Segoe UI",Roboto,Helvetica,Arial,sans-serif;font-size:14px;fill:#171717;text-anchor:middle}.data-point{fill:#ef4444}.arrowhead-path{fill:#171717}.axis-line{stroke:#171717;stroke-width:2px}.posterior-line{stroke:#171717;stroke-width:3px;fill:none}.loop-arrow{stroke:#171717;stroke-width:2px;fill:none}.prior-line{fill:none;stroke:#9ca3af;stroke-width:3px;stroke-dasharray:5,5}@media (prefers-color-scheme:dark){.text-label{fill:#ffffff}.arrowhead-path{fill:#ffffff}.axis-line{stroke:#ffffff}.posterior-line{stroke:#ffffff}.loop-arrow{stroke:#ffffff}}</style><defs><marker id="arrowhead" markerHeight="7" markerWidth="10" orient="auto" refX="9" refY="3.5"><path d="m0 0 10 3.5L0 7z" class="arrowhead-path"/></marker></defs><path d="M50 250h500m-500 0V50" class="axis-line"/><path d="M50 248q100 0 130-98 30 98 170 98" class="prior-line"/><text x="180" y="140" class="text-label">Prior (Iteration t)</text><circle cx="280" cy="250" r="4" class="data-point"/><circle cx="290" cy="250" r="4" class="data-point"/><circle cx="300" cy="250" r="4" class="data-point"/><text x="290" y="270" class="text-label" style="font-style:italic">Observed Data</text><path d="M150 248q140 0 140-168 0 168 160 168" class="posterior-line"/><text x="350" y="70" class="text-label" style="font-weight:700">Posterior (Iteration t)</text><path stroke-dasharray="4,4" marker-end="url(#arrowhead)" d="M370 60q180 0 180 90 0 130-370 130-100 0-100-60" class="loop-arrow"/><text x="315" y="295" class="text-label" style="font-weight:500">Posterior becomes Prior for Iteration t+1</text></svg>