<svg xmlns="http://www.w3.org/2000/svg" width="600" height="350" viewBox="0 0 600 350"><style>.arrow{stroke:#171717;stroke-width:2px;fill:none}.text-label{font-family:-apple-system,BlinkMacSystemFont,&quot;Segoe UI&quot;,Roboto,Helvetica,Arial,sans-serif;font-size:16px;fill:#171717;text-anchor:middle;font-weight:500}.text-math{font-family:&quot;Times New Roman&quot;,Times,serif;font-size:18px;font-style:italic}.bracket{fill:none;stroke:#171717;stroke-width:1.5px}@media (prefers-color-scheme:dark){.arrow{stroke:#eaeaea}.text-label{fill:#eaeaea}.bracket{stroke:#eaeaea}}</style><defs><marker id="arrowhead" markerHeight="7" markerWidth="10" orient="auto" refX="9" refY="3.5"><path d="m0 0 10 3.5L0 7z" style="fill:#171717"/></marker></defs><path d="M0 0h100v250H0z" style="fill:transparent;stroke:#171717;stroke-width:2px;stroke-dasharray:4,4" transform="translate(250 50)"/><path d="M0 0h100v80H0z" style="fill:#9ca3af;stroke:#171717;stroke-width:2px;opacity:.5" transform="translate(250 50)"/><text x="50" y="45" class="text-label" transform="translate(250 50)">KL</text><path d="M0 80h100v170H0z" style="fill:#d1d5db;stroke:#171717;stroke-width:2px" transform="translate(250 50)"/><text x="50" y="170" class="text-label" transform="translate(250 50)">ELBO</text><path d="M-10 0h-10v250h10" class="bracket" transform="translate(230 50)"/><text x="-35" y="125" class="text-label text-math" style="text-anchor:end" transform="translate(230 50)">ln p(x)</text><text x="-35" y="145" class="text-label" style="text-anchor:end;font-size:12px" transform="translate(230 50)">(Log Evidence)</text><path d="M0 0h10v80H0" class="bracket" transform="translate(370 50)"/><text x="20" y="45" class="text-label text-math" style="text-anchor:start" transform="translate(370 50)">KL(q || p)</text><path d="M0 80h10v170H0" class="bracket" transform="translate(370 50)"/><text x="20" y="165" class="text-label text-math" style="text-anchor:start" transform="translate(370 50)">L(λ)</text><path marker-end="url(#arrowhead)" d="M0 60V0" class="arrow" transform="translate(480 175)"/><text y="80" class="text-label" style="font-size:14px" transform="translate(480 175)">Maximize ELBO</text><path marker-end="url(#arrowhead)" d="M0 0v40" class="arrow" transform="translate(480 75)"/><text y="-10" class="text-label" style="font-size:14px" transform="translate(480 75)">Minimize KL</text><text x="300" y="330" class="text-label" style="font-weight:700">Log Evidence Decomposition</text></svg>